<svg width="175" height="65" viewBox="0 0 175 65" fill="none" xmlns="http://www.w3.org/2000/svg">
<path d="M93.9058 16.7177C95.4539 18.0273 96.7648 19.5552 97.8437 21.296C98.9225 23.0422 99.2678 24.9481 98.8794 27.0243C98.6582 28.3339 98.1619 29.5903 97.3851 30.7881C96.6083 31.9859 95.6859 33.1039 94.607 34.142C93.5281 35.1801 92.3845 36.133 91.1654 37.0061C89.9517 37.8792 88.7865 38.6405 87.686 39.2953C85.2531 40.8232 82.6854 42.186 79.9774 43.3838C78.0408 44.3101 76.0557 45.1832 74.0112 46.0031C71.9667 46.8229 69.9222 47.5842 67.8778 48.2922C62.3539 50.2034 56.7329 51.6993 51.0095 52.7907C45.2914 53.882 39.5032 54.5635 33.6449 54.835C31.8216 54.9468 29.8472 55 27.7218 55C25.5964 55 23.4549 54.9201 21.2971 54.7551C19.1447 54.5901 17.0301 54.3186 14.9587 53.9353C12.8872 53.5573 10.9668 53.009 9.19746 52.3009C8.48 52.0294 7.78952 51.6993 7.12601 51.3214C6.4625 50.9434 5.82595 50.4802 5.22178 49.9319C5.1085 49.7669 4.95746 49.5912 4.76326 49.3995C4.56906 49.2079 4.41802 49.0056 4.31013 48.7873L0 40.7699C0.442341 40.0619 0.99257 39.3272 1.65608 38.5606C2.48682 37.5811 3.36611 36.6281 4.31013 35.6965C5.24875 34.7702 6.18738 33.8971 7.12601 33.0773C11.161 29.6968 15.579 26.6995 20.3854 24.0803C25.1919 21.4611 30.0252 19.1719 34.891 17.2075C37.0434 16.3344 39.336 15.5199 41.7689 14.7533C47.789 12.8474 53.9656 11.3888 60.2932 10.3773C66.6209 9.3711 72.9593 8.6737 79.3139 8.29039C83.5701 8.01889 87.8802 7.93904 92.2443 8.04551H97.3851L105.919 18.4319L93.9058 16.7177ZM5.30809 42.729C5.58321 42.9473 5.88529 43.1549 6.21975 43.3412C6.54881 43.5329 6.85629 43.7086 7.1314 43.8736C8.18331 44.3634 9.246 44.7893 10.3249 45.1406C11.4038 45.4973 12.4934 45.8114 13.5993 46.0829C18.4057 47.2807 23.4333 47.9355 28.682 48.0473C33.9308 48.1591 38.9853 48.0207 43.8511 47.6374C50.5887 47.1476 57.2616 46.0031 63.8643 44.2037C70.4671 42.4043 76.8325 40.0299 82.9659 37.086C84.7353 36.2129 86.5963 35.1482 88.5599 33.8971C90.5181 32.646 92.0824 31.2246 93.2422 29.6435C93.9058 28.7172 94.3751 27.6951 94.6502 26.5771C94.9253 25.4591 94.785 24.3571 94.2348 23.2658C93.7925 22.3927 93.2099 21.6847 92.4924 21.1417C91.775 20.5986 90.9604 20.1887 90.0488 19.9172C89.1371 19.6457 88.1985 19.4807 87.2329 19.4275C86.2673 19.3742 85.3394 19.4274 84.4548 19.5925C81.5795 20.1941 79.179 21.5409 77.2424 23.6384C75.3059 25.736 73.844 28.1263 72.8514 30.7934H72.7705C71.0173 26.6782 70.7044 22.7973 71.8588 20.7743C72.0045 20.5241 72.7489 19.2784 74.0328 17.9155C74.5668 17.3459 75.144 16.8135 75.7536 16.3131C70.9472 16.7497 66.1785 17.3246 61.4584 18.0327C56.7329 18.7407 52.0236 19.5605 47.3251 20.4869C41.58 21.5782 36.013 23.2126 30.624 25.3952C25.235 27.5779 20.1373 30.3303 15.3309 33.6575C14.0039 34.5838 12.693 35.5794 11.393 36.6441C10.0929 37.7088 8.863 38.8428 7.70321 40.0406C7.26086 40.4771 6.8455 40.9296 6.46249 41.3875C6.07949 41.8453 5.69109 42.2925 5.30809 42.729Z" fill="#4F0001"/>
<path d="M123.194 39.8051C123.732 39.2749 124.112 38.9006 124.329 38.6874C124.492 38.5262 124.867 38.1415 125.463 37.5281C126.059 36.9146 126.703 36.2752 127.41 35.6098C128.112 34.9443 128.761 34.3465 129.357 33.811C129.953 33.2807 130.328 33.0104 130.491 33.0104C130.761 33.0104 131.125 33.2079 131.584 33.6083C132.043 34.0086 132.354 34.2893 132.518 34.4452C132.734 34.6584 133.045 35.0171 133.451 35.5214C133.858 36.0309 134.006 36.4156 133.895 36.6807L133.731 36.8419C133.678 37.055 133.557 37.2266 133.367 37.3617C133.177 37.4969 133.003 37.6425 132.839 37.7984L130.407 40.195L126.518 44.7491L124.571 46.9066C125.22 46.8026 125.975 46.5739 126.84 46.2256C127.705 45.8824 128.581 45.5081 129.473 45.1078C130.365 44.7075 131.214 44.2812 132.027 43.829C132.839 43.3767 133.515 42.992 134.053 42.6696C134.649 42.3005 134.997 42.1654 135.108 42.2693C135.214 42.3785 135.515 42.6436 136 43.0699C136 43.1219 135.947 43.2831 135.836 43.5482L135.108 44.0265C134.407 44.562 133.488 45.2118 132.354 45.9812C131.22 46.7558 130.027 47.4733 128.787 48.1387C127.542 48.8041 126.302 49.324 125.057 49.6983C123.811 50.0726 122.761 50.0986 121.896 49.7763C121.516 49.7763 121.11 49.4852 120.683 48.8977C120.25 48.3103 119.981 47.8892 119.87 47.6188C119.654 47.3017 119.437 46.8858 119.221 46.3815C119.005 45.8773 118.899 45.4354 118.899 45.0662C118.899 44.8531 119.168 44.4268 119.712 43.7874C119.981 43.4183 120.282 43.0439 120.603 42.6696C120.224 42.6176 119.844 42.5917 119.469 42.5917C118.118 42.5917 116.767 42.6176 115.417 42.6696L109.175 49.6983C109.011 49.8595 108.821 49.8439 108.61 49.6567C108.394 49.4696 108.162 49.246 107.919 48.9757C107.676 48.7106 107.46 48.4298 107.27 48.1387C107.08 47.8476 106.959 47.6708 106.906 47.6188C106.742 47.3017 106.542 46.8858 106.299 46.3815C106.056 45.8773 105.961 45.4354 106.014 45.0662C106.014 44.8531 106.257 44.4268 106.742 43.7874C107.228 43.1479 107.782 42.4825 108.404 41.791C109.027 41.0996 109.618 40.4602 110.188 39.8727C110.758 39.2853 111.148 38.8902 111.364 38.677C111.528 38.5159 111.903 38.1311 112.499 37.5177C113.095 36.9042 113.744 36.2648 114.446 35.5994C115.148 34.9339 115.797 34.3361 116.393 33.8006C116.989 33.2703 117.364 33 117.527 33C117.796 33 118.16 33.1975 118.619 33.5979C119.079 33.9982 119.416 34.2789 119.633 34.4348C119.849 34.7 120.092 34.9963 120.361 35.3134C120.63 35.6306 120.82 35.9529 120.931 36.27L118.013 39.6232H118.984C119.58 39.6232 120.187 39.6388 120.809 39.6648C121.432 39.6908 122.091 39.7324 122.798 39.7843H123.194V39.8051Z" fill="#4F0001"/>
<path d="M142.89 45.9992L140.984 47.5948C140.374 48.0096 139.683 48.4531 138.911 48.9197C138.133 49.392 137.35 49.7146 136.546 49.8932C135.741 50.0717 134.996 50.0257 134.305 49.7607C133.614 49.4957 133.074 48.8621 132.685 47.8598L131.276 44.1444C131 43.4359 130.93 42.6986 131.07 41.9324C131.205 41.1663 131.47 40.429 131.859 39.7205C132.242 39.012 132.701 38.3495 133.225 37.7274C133.749 37.1053 134.262 36.5638 134.758 36.0915C135.255 35.6192 135.849 35.0604 136.54 34.4095C137.231 33.7586 137.966 33.171 138.738 32.6411C139.51 32.1111 140.298 31.6849 141.103 31.3565C141.902 31.034 142.69 30.9303 143.468 31.0455C144.629 31.224 145.682 31.9038 146.621 33.0789C147.561 34.2597 148.365 35.3484 149.029 36.3565C149.197 36.1779 149.526 35.8092 150.023 35.2505C150.52 34.6917 151.06 34.1157 151.643 33.5224C152.221 32.9349 152.777 32.4049 153.301 31.9268C153.824 31.4545 154.143 31.2183 154.256 31.2183C154.532 31.2183 154.904 31.4372 155.374 31.8807C155.844 32.3243 156.162 32.6353 156.33 32.8081C156.497 32.9867 156.799 33.3381 157.242 33.868C157.685 34.398 157.852 34.8127 157.739 35.1065C157.739 35.2275 157.712 35.3139 157.658 35.3715C157.545 35.55 157.393 35.7401 157.204 35.9475C157.01 36.1549 156.832 36.345 156.664 36.5235C155.671 37.4106 154.866 38.2919 154.256 39.179L150.109 44.0465L148.203 46.5234C148.867 46.4082 149.64 46.1547 150.525 45.7746C151.411 45.3886 152.296 44.9624 153.182 44.49C154.067 44.0177 154.926 43.5453 155.752 43.073C156.583 42.6006 157.302 42.1859 157.906 41.8345C158.517 41.3622 158.873 41.2009 158.986 41.3449C159.094 41.4947 159.429 41.8345 159.98 42.3645C160.034 42.4854 159.98 42.6294 159.812 42.808C159.537 43.1018 159.289 43.2804 159.067 43.338C158.349 43.9255 157.41 44.6513 156.249 45.5038C155.088 46.3621 153.857 47.157 152.555 47.8944C151.254 48.6317 149.969 49.2077 148.7 49.6224C147.426 50.0372 146.351 50.066 145.466 49.7089C145.244 49.7089 145.012 49.5591 144.758 49.2653C144.51 48.9715 144.262 48.6317 144.013 48.2457C143.765 47.8656 143.543 47.4508 143.349 47.0073C143.155 46.5752 142.998 46.2354 142.89 45.9992ZM136.087 44.1444C135.53 44.9739 135.325 45.5614 135.466 45.9128C135.601 46.2642 135.892 46.4773 136.335 46.5349C136.778 46.5925 137.302 46.5349 137.912 46.3564C138.522 46.1778 139.019 45.9762 139.407 45.74L141.151 44.6801C141.373 44.5015 141.94 43.9601 142.852 43.0442C143.765 42.1283 144.596 41.1548 145.342 40.1237C146.087 39.0926 146.556 38.1767 146.751 37.3818C146.945 36.5869 146.459 36.2182 145.298 36.2758C145.185 36.2182 145.12 36.2009 145.093 36.2297C145.066 36.2585 144.996 36.2758 144.888 36.2758C144.278 36.512 143.489 36.9844 142.523 37.6929C141.556 38.4014 140.768 38.9889 140.158 39.4613C139.44 40.1122 138.732 40.8495 138.041 41.6732C137.345 42.4912 136.697 43.3149 136.087 44.1444Z" fill="#4F0001"/>
<path d="M170.658 36.1585C170.319 35.587 169.819 35.4246 169.163 35.6823C168.506 35.94 167.951 36.2145 167.495 36.5002C167.039 36.842 166.483 37.391 165.827 38.1362C165.171 38.8813 164.531 39.6993 163.903 40.5901C163.275 41.4808 162.719 42.3548 162.235 43.2176C161.752 44.0804 161.424 44.7975 161.251 45.369C161.023 45.7107 161.051 46.0861 161.335 46.4894C161.563 46.7752 161.991 46.876 162.613 46.792C163.242 46.7079 163.892 46.5511 164.576 46.3158C165.26 46.0861 165.899 45.8284 166.499 45.5426C167.1 45.2569 167.539 45.0552 167.823 44.9376C168.679 44.4782 169.529 44.0188 170.386 43.5594C171.242 43.1 172.065 42.6406 172.865 42.1811C173.549 41.7834 173.944 41.6377 174.06 41.7498C174.172 41.8674 174.489 42.1531 175 42.6125C175 42.6686 174.944 42.8422 174.828 43.128L174.06 43.6434C173.149 44.3325 172.254 44.9936 171.37 45.6211C170.486 46.2541 169.563 46.8536 168.595 47.4307C167.967 47.7724 167.2 48.1758 166.288 48.6352C165.376 49.0946 164.454 49.4532 163.514 49.7109C162.574 49.9686 161.663 50.0526 160.779 49.9686C159.895 49.8845 159.2 49.4363 158.688 48.6352L156.554 45.6211C156.042 44.8759 155.886 44.03 156.081 43.0831C156.281 42.1363 156.648 41.2063 157.193 40.2875C157.732 39.3687 158.344 38.5115 159.028 37.7048C159.711 36.9036 160.278 36.2706 160.734 35.8111C161.474 35.066 162.241 34.3601 163.041 33.7046C163.836 33.0435 164.665 32.4889 165.521 32.0239C166.149 31.7382 166.844 31.4636 167.611 31.2059C168.379 30.9482 169.107 30.9314 169.791 31.1611L174.06 35.8952C174.288 36.1809 174.172 36.5675 173.721 37.0549C173.265 37.5423 172.954 37.8448 172.782 37.9569C172.665 38.1306 172.454 38.3995 172.142 38.7748C171.831 39.1502 171.586 39.3071 171.414 39.2511C171.297 39.2511 171.186 39.2062 171.075 39.1222C170.958 39.0382 170.847 38.9373 170.736 38.8197C170.452 38.3603 170.108 37.9569 169.713 37.6151V37.5311C169.824 37.3574 169.996 37.1333 170.224 36.842C170.458 36.5619 170.602 36.3322 170.658 36.1585Z" fill="#4F0001"/>
</svg>
